<?xml version="1.0" encoding="utf-8"?>
<svg viewBox="0 0 500 500" xmlns="http://www.w3.org/2000/svg">
  <path style="stroke: rgb(0, 0, 0);" d="M 233.697 251.224 L 236.951 60.004 L 248.121 242.81 C 245.29 242.81 279.781 51.078 286.157 51.078 C 289.133 52.566 254.583 244.84 254.132 244.614 L 262.546 253.629 L 272.163 255.432 L 378.424 113.149 C 379.726 117.055 281.105 258.216 280.578 256.634 C 280.578 252.549 440.132 265.636 440.132 266.941 C 439.588 265.308 272.249 264.706 275.168 273.463 C 278.12 269.035 373.026 413.369 372.536 414.104 C 372.536 414.539 252.329 273.623 252.329 272.261 L 236.101 262.644 C 239.369 267.959 148.149 436.377 145.797 432.313 L 227.086 250.022 C 227.888 255.639 38.452 255.052 37.362 247.42 L 227.686 240.406 C 223.362 242.568 81.893 96.029 88.848 92.551 C 88.848 92.265 228.288 227.312 228.288 233.795 L 222.278 206.148 C 217.986 209.01 158.798 59.959 159.759 59.318 C 160.967 58.714 238.261 212.881 232.494 215.764 L 249.324 257.235 L 339.965 80 C 347.299 81.467 253.029 276.728 251.728 276.468 C 247.944 269.846 429.933 173.307 433.757 180 L 271.562 268.655 L 275.769 280.675 C 281.972 271.991 412.197 339.158 409.123 343.462 C 409.123 340.73 255.334 274.832 255.334 281.277 C 241.358 286.867 306.541 440.735 310.302 439.231 L 264.35 268.655 L 242.713 262.043 C 251.583 265.844 222.468 452.322 218.423 450.588 L 231.894 256.634 L 212.059 272.862 C 218.955 279.758 102.033 389.9 100 387.867 C 99.638 387.143 198.633 266.444 200.039 269.256 L 194.63 260.24 C 200.198 267.201 53.1 319.746 51.559 317.82 L 188.019 248.22 C 188.019 248.22 82.255 192.262 74.898 180 L 206.05 241.007 L 217.469 224.779 L 233.697 251.224 Z"/>
</svg>